<?xml version="1.0" encoding="iso-8859-1"?>
<!-- Generator: Adobe Illustrator 18.1.1, SVG Export Plug-In . SVG Version: 6.00 Build 0)  -->
<svg version="1.1" id="Capa_1" xmlns="http://www.w3.org/2000/svg" xmlns:xlink="http://www.w3.org/1999/xlink" x="0px" y="0px"
	 viewBox="0 0 21.424 21.424" style="enable-background:new 0 0 21.424 21.424;" xml:space="preserve">
<g>
	<g>
		<g>
			<path style="fill:#010002;" d="M13.616,17.709L13.616,17.709h0.781l-3.686,3.715l-3.685-3.715h0.781l0,0H13.616z"/>
			<path style="fill:#010002;" d="M13.616,3.715L13.616,3.715h0.781L10.712,0L7.027,3.715h0.781l0,0H13.616z"/>
			<path style="fill:#010002;" d="M3.716,13.616L3.716,13.616v0.781L0,10.712l3.716-3.685v0.781l0,0V13.616z"/>
			<path style="fill:#010002;" d="M17.709,13.616L17.709,13.616v0.781l3.715-3.685l-3.715-3.685v0.781l0,0V13.616z"/>
		</g>
		<path style="fill:#010002;" d="M10.712,6.608c2.267,0,4.104,1.838,4.104,4.104s-1.837,4.104-4.104,4.104
			c-2.266,0-4.104-1.837-4.104-4.104C6.608,8.446,8.446,6.608,10.712,6.608L10.712,6.608z M10.712,7.515
			c-1.765,0-3.196,1.432-3.196,3.197s1.432,3.197,3.196,3.197c1.766,0,3.197-1.432,3.197-3.197S12.478,7.515,10.712,7.515z"/>
	</g>
</g>
<g>
</g>
<g>
</g>
<g>
</g>
<g>
</g>
<g>
</g>
<g>
</g>
<g>
</g>
<g>
</g>
<g>
</g>
<g>
</g>
<g>
</g>
<g>
</g>
<g>
</g>
<g>
</g>
<g>
</g>
</svg>
