<?xml version="1.0" encoding="iso-8859-1"?>
<!-- Generator: Adobe Illustrator 16.0.0, SVG Export Plug-In . SVG Version: 6.00 Build 0)  -->
<!DOCTYPE svg PUBLIC "-//W3C//DTD SVG 1.1//EN" "http://www.w3.org/Graphics/SVG/1.1/DTD/svg11.dtd">
<svg version="1.1" id="Capa_1" xmlns="http://www.w3.org/2000/svg" xmlns:xlink="http://www.w3.org/1999/xlink" x="0px" y="0px"
	 width="126.647px" height="126.647px" viewBox="0 0 126.647 126.647" style="enable-background:new 0 0 126.647 126.647;"
	 xml:space="preserve">
<g>
	<g>
		<path d="M126.225,53.273c-1.556-5.819-8.011-12.749-29.905-12.749c-6.353,0-13.463,0.638-20.89,1.829
			c-3.185,0.507-5.121,3.359-4.346,6.256c0.778,2.891,3.967,4.739,7.156,4.25c6.446-0.985,12.587-1.513,18.079-1.513
			c13.741,0,19.04,3.184,19.451,4.725c1.072,4.002-14.259,18.159-48.867,27.437c-12.992,3.485-25.986,5.401-36.588,5.401
			c-13.747,0-19.042-3.177-19.453-4.722c-0.271-1.011,1.179-5.338,11.079-11.736c5.04-3.262,11.198-6.361,18.089-9.146
			c2.987-1.212,4.823-4.437,4.048-7.334c-0.778-2.896-3.875-4.379-6.877-3.197c-8.033,3.179-15.241,6.774-21.139,10.583
			C0.571,73.375-1.001,81.738,0.407,86.993c1.558,5.811,8.014,12.74,29.91,12.74c7.369,0,15.758-0.851,24.477-2.437
			c3.174-0.572,7.173,1.045,8.958,3.734l1.997,3.007c5.593,9.322,11.396,4.65,10.639-2.848l0.219-3.508
			c0.201-3.217,2.867-6.59,5.913-7.644C107.983,81.238,129.989,67.324,126.225,53.273z"/>
		<path d="M53.054,71.441c0.367,1.354,1.226,2.516,2.392,3.228c1.166,0.714,2.547,0.919,3.831,0.572l8.375-2.258
			c1.286-0.343,2.375-1.216,3.024-2.418c0.652-1.202,0.812-2.637,0.445-3.992L58.95,21.388c-0.366-1.354-1.226-2.515-2.392-3.228
			c-1.166-0.712-2.545-0.918-3.83-0.573l-8.373,2.257c-2.677,0.722-4.229,3.593-3.469,6.411L53.054,71.441z"/>
	</g>
</g>
<g>
</g>
<g>
</g>
<g>
</g>
<g>
</g>
<g>
</g>
<g>
</g>
<g>
</g>
<g>
</g>
<g>
</g>
<g>
</g>
<g>
</g>
<g>
</g>
<g>
</g>
<g>
</g>
<g>
</g>
</svg>
